<svg width="40" height="26" viewBox="0 0 40 26" fill="none" xmlns="http://www.w3.org/2000/svg">
<path d="M33.9356 24.3096C31.7568 24.2591 30.0317 22.4614 30.0825 20.2944C30.1333 18.1274 31.9407 16.4116 34.1195 16.4621C36.2983 16.5126 38.0234 18.3103 37.9726 20.4773C37.9218 22.6443 36.1144 24.3601 33.9356 24.3096Z" stroke="white" stroke-width="2" stroke-miterlimit="10"/>
<path d="M8.63056 24.31C6.45118 24.31 4.68445 22.5528 4.68445 20.3852C4.68445 18.2176 6.45118 16.4604 8.63056 16.4604C10.8099 16.4604 12.5767 18.2176 12.5767 20.3852C12.5767 22.5528 10.8099 24.31 8.63056 24.31Z" stroke="white" stroke-width="2" stroke-miterlimit="10"/>
<path d="M26.7438 20.3013C26.7461 19.3708 26.9329 18.4499 27.2938 17.5914C27.6546 16.733 28.1823 15.9538 28.8466 15.2986C31.6498 12.522 36.1969 12.522 39.0001 15.2986" stroke="white" stroke-width="2" stroke-miterlimit="10" stroke-linecap="round" stroke-linejoin="round"/>
<path d="M1.20864 20.3011C1.20864 16.3734 4.40963 13.1904 8.35862 13.1904C12.3076 13.1904 15.5079 16.3741 15.5079 20.3018" stroke="white" stroke-width="2" stroke-miterlimit="10" stroke-linecap="round" stroke-linejoin="round"/>
<path d="M16.53 5.06384H3.25186V9.12767H16.53V5.06384Z" stroke="white" stroke-width="2" stroke-miterlimit="10" stroke-linecap="round" stroke-linejoin="round"/>
<path d="M34.9149 13.1908L28.7861 1H24.7002" stroke="white" stroke-width="2" stroke-miterlimit="10" stroke-linecap="round" stroke-linejoin="round"/>
<path d="M26.7438 20.3853H15.5079" stroke="white" stroke-width="2" stroke-miterlimit="10" stroke-linecap="round" stroke-linejoin="round"/>
<path d="M16.5297 9.12695C16.5297 9.12695 20.6156 24.3652 28.7859 9.12695" stroke="white" stroke-width="2" stroke-miterlimit="10" stroke-linecap="round" stroke-linejoin="round"/>
<path d="M3.25153 9.12695C3.25153 9.12695 0.186736 14.2064 1.20857 20.3014" stroke="white" stroke-width="2" stroke-miterlimit="10" stroke-linecap="round" stroke-linejoin="round"/>
</svg>
